<svg
                version="1.0"
                xmlns="http://www.w3.org/2000/svg"
                viewBox="0 0 512 512"
                class="h-12 w-12"
            >
                <g
                    transform="translate(0.000000,460.000000) scale(0.100000,-0.100000)"
                    fill="#000000"
                    stroke="none"
                >
                    <path
                        d="M1187 4168 c-8 -13 -70 -120 -137 -238 -68 -118 -163 -282 -210 -365
-194 -334 -248 -428 -350 -605 -58 -102 -168 -292 -243 -423 l-138 -238 52
-92 c29 -51 61 -108 72 -127 11 -19 43 -75 72 -125 29 -49 85 -146 125 -215
40 -69 80 -138 90 -155 60 -103 217 -377 238 -415 13 -25 28 -49 32 -55 4 -5
69 -116 143 -245 74 -129 165 -288 203 -353 l68 -117 438 0 438 0 -2 163 -3
162 -343 5 -343 5 -22 40 c-34 58 -244 423 -312 540 -32 55 -66 114 -75 130
-58 101 -216 375 -231 400 -10 17 -26 44 -35 60 -9 17 -64 111 -121 210 l-105
180 28 50 c15 28 51 91 80 140 29 50 154 266 277 480 124 215 258 446 298 515
40 69 84 146 98 171 14 25 49 85 76 132 l50 87 909 -2 909 -3 57 -100 c31 -55
132 -230 225 -390 92 -159 176 -303 185 -320 27 -48 160 -279 242 -420 171
-295 188 -326 188 -338 0 -11 -76 -146 -284 -502 -44 -77 -85 -147 -91 -156
-5 -9 -20 -35 -33 -58 -12 -22 -54 -96 -93 -163 -207 -357 -346 -598 -368
-640 l-26 -48 -342 0 -343 0 0 -165 0 -165 434 0 c335 0 436 3 443 13 6 6 21
32 35 57 14 25 68 119 120 210 53 91 108 188 123 215 16 28 38 66 50 85 12 19
33 55 47 80 14 25 49 86 78 135 29 50 62 108 74 130 13 22 105 182 206 355
101 173 192 331 203 350 10 19 48 84 83 146 35 61 64 117 64 125 0 8 -6 23
-14 34 -13 20 -178 304 -232 400 -15 28 -45 78 -66 113 -21 34 -38 64 -38 66
0 2 -34 61 -75 131 -41 69 -75 128 -75 131 0 2 -11 21 -23 42 -13 20 -35 57
-49 82 -14 25 -73 128 -132 230 -140 240 -237 408 -317 547 l-64 113 -1102 0
-1103 0 -13 -22z"
                    ></path>
                    <path
                        d="M2743 3269 c-44 -9 -174 -87 -213 -129 -3 -3 -37 -33 -75 -66 l-71
-62 -44 45 c-61 61 -147 127 -228 174 -117 69 -179 54 -352 -86 -44 -36 -84
-65 -88 -65 -4 0 -16 14 -26 31 -21 36 -135 159 -147 159 -4 0 -38 -21 -75
-47 -37 -27 -113 -79 -168 -118 -56 -38 -112 -77 -124 -86 l-22 -16 47 -49
c50 -54 96 -142 114 -219 8 -34 13 -267 16 -732 l4 -683 230 0 229 0 0 714 0
714 38 30 c92 72 144 70 218 -10 68 -71 64 -27 64 -773 l0 -675 235 0 236 0
-1 717 -1 717 56 38 c75 50 111 51 165 1 23 -20 51 -50 63 -67 22 -31 22 -36
28 -521 5 -466 6 -494 27 -570 37 -134 96 -233 186 -317 l40 -37 36 22 c36 22
118 80 271 190 l80 58 -46 51 c-50 56 -72 94 -101 173 -16 45 -19 100 -24 525
-6 531 -3 504 -83 625 -51 78 -84 112 -190 201 -142 118 -228 159 -304 143z"
                    ></path>
                </g>
            </svg>